<?xml version="1.0" encoding="utf-8" ?>
<svg baseProfile="full" height="1000" version="1.1" width="1000" xmlns="http://www.w3.org/2000/svg" xmlns:ev="http://www.w3.org/2001/xml-events" xmlns:xlink="http://www.w3.org/1999/xlink"><defs /><path d="M93,1 L93,2 L86,2 L82,3 L78,4 L74,5 L72,6 L68,7 L66,8 L64,9 L61,10 L59,11 L57,12 L55,13 L53,14 L52,15 L50,16 L48,17 L47,18 L46,19 L44,20 L43,21 L42,22 L40,23 L39,24 L38,25 L37,26 L36,27 L34,28 L33,29 L32,30 L31,31 L30,32 L29,33 L28,34 L27,35 L26,36 L26,38 L25,39 L24,40 L23,41 L22,43 L21,44 L20,45 L19,47 L18,48 L17,49 L16,51 L15,53 L14,55 L13,56 L12,58 L11,60 L10,62 L9,65 L8,67 L7,70 L6,73 L5,76 L4,79 L3,83 L2,88 L1,93 L0,120 L1,126 L2,131 L3,135 L4,138 L5,142 L6,144 L7,147 L8,150 L9,152 L10,154 L11,156 L12,158 L13,159 L14,162 L15,163 L16,165 L17,166 L18,168 L19,169 L20,170 L21,172 L22,173 L23,174 L24,175 L25,177 L26,178 L27,179 L28,180 L29,181 L30,182 L31,183 L32,184 L33,185 L34,186 L35,187 L36,188 L38,188 L39,189 L40,190 L41,191 L43,192 L44,193 L45,194 L47,195 L48,196 L50,197 L51,198 L53,199 L55,200 L57,201 L59,202 L61,203 L63,204 L65,205 L68,206 L71,207 L74,208 L77,209 L81,210 L85,211 L90,212 L123,213 L127,212 L132,211 L136,210 L139,209 L142,208 L144,207 L147,206 L149,205 L152,204 L154,203 L156,202 L158,201 L160,200 L161,199 L163,198 L164,197 L166,196 L167,195 L169,194 L170,193 L171,192 L173,191 L174,190 L175,189 L176,188 L178,187 L179,186 L180,185 L180,183 L182,183 L183,182 L184,181 L184,179 L185,178 L186,177 L187,176 L188,175 L189,174 L190,173 L191,171 L192,170 L193,168 L194,167 L195,165 L196,164 L197,162 L198,160 L199,159 L200,157 L201,155 L202,153 L203,151 L204,149 L205,146 L206,143 L207,140 L208,137 L209,133 L210,129 L211,123 L212,114 L213,99 L212,91 L211,85 L210,81 L209,77 L208,74 L207,71 L206,68 L205,66 L204,63 L203,61 L202,59 L201,57 L200,55 L199,54 L198,52 L197,50 L196,49 L195,47 L194,46 L193,44 L192,43 L191,42 L190,40 L189,39 L188,38 L187,37 L186,36 L185,35 L184,33 L183,32 L182,31 L180,31 L179,30 L178,29 L177,28 L176,27 L175,26 L174,25 L173,24 L171,23 L170,22 L168,21 L167,20 L166,19 L164,18 L162,17 L161,16 L159,15 L157,14 L156,13 L154,12 L151,11 L149,10 L147,9 L144,8 L141,7 L138,6 L135,5 L131,4 L126,3 L120,2 L93,1 Z" fill="#fff" stroke="#000000" /><path d="M96,22 L96,23 L90,23 L86,24 L82,25 L79,26 L76,27 L74,28 L71,29 L69,30 L67,31 L65,32 L63,33 L62,34 L60,35 L59,36 L57,37 L56,38 L55,39 L53,40 L52,41 L51,42 L50,43 L49,44 L48,45 L47,46 L46,47 L45,48 L44,49 L43,50 L42,51 L41,52 L40,53 L40,55 L39,56 L38,57 L37,58 L36,60 L35,61 L34,63 L33,64 L32,66 L31,69 L30,71 L29,72 L28,75 L27,77 L26,80 L25,83 L24,87 L23,92 L22,99 L21,115 L22,122 L23,128 L24,131 L25,134 L26,137 L27,139 L28,142 L29,144 L30,146 L31,148 L32,150 L33,151 L34,153 L35,154 L36,156 L37,157 L38,158 L39,160 L40,161 L41,162 L42,164 L43,165 L44,166 L45,167 L46,168 L47,169 L48,170 L50,170 L51,171 L52,172 L53,173 L54,174 L56,175 L57,176 L59,177 L60,178 L62,179 L63,180 L65,181 L67,182 L69,183 L71,184 L73,185 L76,186 L78,187 L81,188 L85,189 L89,190 L95,191 L118,192 L123,191 L128,190 L131,189 L134,188 L137,187 L139,186 L142,185 L144,184 L146,183 L148,182 L149,181 L151,180 L153,179 L154,178 L155,177 L157,176 L158,175 L159,174 L161,173 L162,172 L163,171 L164,170 L165,169 L166,168 L167,167 L168,166 L169,165 L170,164 L171,163 L172,162 L172,160 L173,159 L174,158 L175,157 L176,155 L177,153 L178,152 L179,150 L180,149 L181,147 L182,145 L183,143 L184,141 L185,138 L186,136 L187,133 L188,129 L189,125 L190,120 L191,94 L190,88 L189,85 L188,82 L187,79 L186,76 L185,74 L184,71 L183,69 L182,67 L181,66 L180,64 L179,62 L178,61 L177,59 L176,58 L175,56 L174,55 L173,54 L172,52 L171,51 L170,50 L169,49 L168,48 L167,47 L166,46 L165,45 L164,44 L163,43 L162,42 L160,42 L159,41 L158,40 L157,39 L155,38 L154,37 L152,36 L150,35 L149,34 L147,33 L145,32 L143,31 L141,30 L139,29 L136,28 L134,27 L131,26 L128,25 L123,24 L116,23 L96,22 Z" fill="#fff" stroke="#000000" /><path d="M105,31 L105,34 L103,34 L100,35 L98,36 L97,37 L96,38 L95,39 L95,42 L96,44 L97,47 L90,47 L91,48 L91,55 L90,67 L89,69 L88,72 L87,73 L86,75 L80,75 L80,77 L81,78 L80,97 L81,98 L80,100 L79,92 L78,90 L77,88 L76,87 L75,86 L74,85 L73,84 L71,84 L70,83 L68,82 L66,81 L66,79 L67,78 L68,76 L69,77 L71,77 L73,78 L73,80 L75,80 L75,82 L77,82 L78,83 L79,82 L78,81 L78,78 L77,73 L76,70 L75,69 L74,68 L72,68 L70,67 L68,66 L66,65 L64,64 L62,63 L57,62 L55,61 L51,62 L49,63 L48,64 L47,65 L47,67 L46,71 L45,73 L46,77 L47,79 L49,79 L47,80 L46,81 L45,82 L45,84 L44,85 L43,86 L42,88 L41,90 L40,94 L39,99 L40,103 L41,104 L42,106 L43,107 L42,108 L41,111 L40,113 L39,114 L38,115 L37,116 L36,117 L35,118 L34,121 L39,121 L39,123 L38,125 L37,127 L36,131 L37,134 L39,134 L41,135 L43,134 L44,133 L44,129 L45,128 L49,128 L50,129 L51,130 L52,129 L53,128 L54,127 L55,126 L55,130 L56,137 L55,140 L54,141 L53,140 L52,141 L50,141 L48,142 L45,143 L43,144 L42,145 L41,146 L41,148 L42,150 L43,151 L45,151 L46,152 L46,161 L167,161 L167,152 L169,152 L169,150 L170,148 L171,147 L170,145 L168,145 L167,144 L166,143 L165,142 L163,141 L160,140 L159,139 L159,136 L158,132 L159,128 L160,130 L161,131 L162,132 L165,132 L165,129 L168,129 L169,130 L169,133 L170,134 L171,135 L173,135 L174,136 L177,135 L177,133 L178,128 L177,125 L176,123 L175,122 L180,122 L181,121 L180,120 L180,118 L179,117 L178,116 L177,115 L176,114 L175,113 L174,111 L173,105 L174,103 L175,99 L176,95 L175,91 L174,89 L173,87 L172,85 L171,84 L170,83 L169,81 L168,80 L167,78 L168,75 L169,70 L168,67 L167,66 L166,64 L164,64 L162,63 L158,62 L155,61 L152,62 L149,63 L147,64 L145,65 L144,66 L141,67 L140,68 L138,69 L138,71 L137,74 L136,78 L135,82 L134,83 L135,84 L137,84 L138,83 L139,82 L140,81 L141,80 L143,79 L145,78 L146,79 L147,80 L146,81 L144,82 L142,83 L141,84 L140,85 L139,86 L138,87 L137,88 L136,89 L136,91 L135,93 L134,98 L133,75 L127,75 L127,73 L126,71 L125,69 L124,66 L123,52 L122,49 L123,47 L116,47 L116,44 L117,42 L118,39 L117,38 L116,37 L115,36 L113,36 L110,35 L108,34 L108,31 L105,31 Z" fill="#fff" stroke="#000000" /><path d="M91,76 L91,78 L92,79 L93,81 L95,81 L98,82 L99,83 L100,84 L102,85 L104,84 L105,83 L107,82 L109,83 L111,84 L112,85 L114,84 L116,83 L119,82 L121,81 L123,80 L125,79 L129,78 L128,79 L127,80 L125,81 L123,82 L121,83 L119,84 L117,85 L115,86 L114,87 L113,88 L113,90 L114,91 L116,91 L118,92 L122,93 L124,94 L125,95 L128,96 L129,97 L129,100 L125,100 L124,99 L120,98 L118,97 L117,96 L114,95 L113,94 L100,93 L99,94 L97,95 L97,97 L99,97 L99,99 L100,100 L96,100 L95,99 L94,98 L92,97 L90,98 L87,99 L85,100 L85,97 L87,97 L89,96 L90,95 L92,94 L92,88 L93,87 L94,88 L95,92 L96,91 L99,91 L100,90 L100,88 L98,88 L95,87 L92,86 L88,85 L87,86 L86,85 L86,83 L85,79 L87,79 L88,78 L88,76 L87,77 L82,77 L82,82 L83,100 L82,101 L84,101 L85,102 L84,103 L83,104 L83,107 L82,112 L83,116 L82,117 L83,122 L84,125 L85,127 L86,128 L87,130 L88,131 L89,132 L90,133 L91,134 L92,135 L93,136 L94,137 L96,137 L97,138 L98,139 L100,140 L101,141 L102,140 L102,138 L101,134 L99,134 L99,132 L100,131 L102,131 L103,130 L105,129 L106,128 L108,127 L109,128 L110,129 L111,130 L114,131 L115,132 L114,133 L113,134 L113,136 L112,138 L111,139 L112,141 L114,141 L116,140 L117,139 L118,138 L120,137 L121,136 L122,135 L123,134 L124,133 L125,132 L126,131 L127,130 L127,128 L128,126 L129,124 L130,121 L131,118 L130,117 L129,116 L130,113 L131,107 L130,105 L129,104 L128,102 L129,101 L131,101 L130,100 L130,97 L131,77 L105,77 L104,76 L93,77 L91,76 Z" fill="#fff" stroke="#000000" /></svg>